<svg width="138" height="32" viewBox="0 0 138 32" fill="none" xmlns="http://www.w3.org/2000/svg">
<g clip-path="url(#clip0_4003_5208)">
<path fill-rule="evenodd" clip-rule="evenodd" d="M132.585 24.7339V14.7784C132.585 11.7934 131.232 10.4181 128.024 10.4181C124.881 10.4181 122.34 12.2683 121.566 14.2584V24.7339H117.022V7.10271H121.566V12.1784C122.491 9.32997 125.301 6.69216 129.632 6.69216C133.905 6.69216 137.129 8.96031 137.129 13.9576V24.7339H132.585ZM109.822 11.4163H100.811V24.7339H96.2667V11.4163H92.3479V7.92323H96.2667V6.14899C96.2667 1.89093 98.6044 0.00574024 102.973 0.00574024H114.366V3.73162H104.066C101.99 3.68298 100.811 4.28058 100.811 6.70342V7.9231H114.366V24.7341H109.822V11.4163ZM85.5733 20.1877V19.0756C84.6108 22.2768 82.0768 25.1332 77.4469 25.1332C72.1803 25.1332 68.158 21.4448 68.158 15.9426C68.158 10.3744 72.0647 6.69223 77.4469 6.69223C82.1238 6.69223 84.6222 8.98491 85.5733 12.3335V-0.00195312H90.1174V24.7339H85.8946C85.8946 24.7339 85.5733 22.29 85.5733 20.1877ZM78.9104 10.2672C75.0222 10.2672 72.8006 12.534 72.8006 15.9426C72.8006 19.3403 75.2381 21.5691 78.9104 21.5691C83.026 21.5691 85.5733 19.3137 85.5733 15.9426C85.5733 12.3165 82.9866 10.2672 78.9104 10.2672ZM56.0251 25.1442C49.4518 25.1442 44.9491 21.9442 44.9491 15.9536C44.9491 9.99897 49.4518 6.69223 56.0251 6.69223C62.5526 6.69223 67.0092 9.99897 67.0092 15.9536C67.0095 21.9442 62.5526 25.1442 56.0251 25.1442ZM56.0251 10.2343C52.427 10.2343 49.5479 12.3014 49.5479 15.9537C49.5479 19.606 52.3812 21.6025 56.0251 21.6025C59.5771 21.6025 62.4107 19.6066 62.4107 15.9537C62.4107 12.3367 59.6232 10.2342 56.0251 10.2342V10.2343ZM32.8164 25.1442C26.243 25.1442 21.7404 21.9442 21.7404 15.9536C21.7404 9.99897 26.243 6.69223 32.8164 6.69223C39.3439 6.69223 43.8005 9.99897 43.8005 15.9536C43.8005 21.9442 39.3439 25.1442 32.8164 25.1442ZM32.8164 10.2343C29.2183 10.2343 26.3392 12.3014 26.3392 15.9537C26.3392 19.606 29.1725 21.6025 32.8164 21.6025C36.3683 21.6025 39.2019 19.6066 39.2019 15.9537C39.2019 12.3367 36.4144 10.2342 32.8164 10.2342V10.2343ZM14.2648 8.79544C16.6685 9.99478 18.9272 11.8619 18.9272 14.6861C18.9272 19.3361 15.2966 22.0297 9.5006 22.0297C6.54746 22.1315 5.15075 22.4143 5.15075 23.5938C5.15075 24.3163 5.70314 24.7342 6.7712 24.7342L12.4802 24.7349C17.1418 24.7349 19.8856 26.0834 19.8856 30.3416V31.998H15.3418V31.1616C15.3418 28.9835 13.8628 28.2432 11.4969 28.2432H6.05914C1.84478 28.2432 0.557793 26.7983 0.557793 24.8821C0.557793 22.4483 2.81812 21.6236 5.85184 21.598C2.23799 20.6564 -0.000366211 18.2012 -0.000366211 14.4642C-0.000366211 9.73301 3.66694 6.6921 9.5006 6.6921C10.2979 6.69147 11.0932 6.77213 11.8741 6.93282L21.3235 6.90433V10.4351C18.7982 10.4967 16.1372 9.60407 14.2648 8.79544ZM9.49952 10.2595C6.46492 10.2595 4.40923 11.8308 4.40923 14.5024C4.40923 17.174 6.42828 18.7124 9.49952 18.7124C12.4972 18.7124 14.5119 17.1744 14.5119 14.5024C14.5119 11.8587 12.5339 10.2595 9.49952 10.2595Z" fill="#373338"/>
</g>
<defs>
<clipPath id="clip0_4003_5208">
<rect width="138" height="32" fill="white"/>
</clipPath>
</defs>
</svg>
